# xmcd
#
# Track frame offsets: 
#        183
#        18008
#        39193
#        62198
#        76633
#        100723
#        122190
#        137965
#        154830
#        173370
#        189788
#
# Disc length: 2759 seconds
#
# Revision: 30
# Processed by: cddbd v1.5.2PL0 Copyright (c) Steve Scherf et al.
# Submitted via: ExactAudioCopyFreeDBPlugin 1.0
#
DISCID=760ac50b
DTITLE=Kate Bush - The sensual world
DYEAR=1989
DGENRE=Rock
TTITLE0=The sensual world
TTITLE1=Love and anger
TTITLE2=The fog
TTITLE3=Reaching out
TTITLE4=Heads we're dancing
TTITLE5=Deeper understanding
TTITLE6=Between a man and a woman
TTITLE7=Never be mine
TTITLE8=Rocket's tail
TTITLE9=This woman's work
TTITLE10=Walk straight down the middle
EXTD=
EXTT0=
EXTT1=
EXTT2=
EXTT3=
EXTT4=
EXTT5=
EXTT6=
EXTT7=
EXTT8=
EXTT9=
EXTT10=
PLAYORDER=
